<svg xmlns="http://www.w3.org/2000/svg" height="1200" width="1600" version="1.1" xmlns:xlink="http://www.w3.org/1999/xlink" xmlns:svgjs="http://svgjs.com/svgjs"><rect fill="#f3ebe9" width="1600" height="1200"></rect><g><path d="M417.53 290.92L1182.47 294.15C1208.31 294.15 1215.4 296.86 1215.4 322.7L1229.25 360.31V925.11C1229.25 950.95 1208.31 971.89 1182.47 971.89H417.53C391.69 971.89 370.75 950.95 370.75 925.11V360.31L383.35 322.7C383.35 296.86 391.69 290.92 417.53 290.92Z" fill="#ffffff" opacity="1" stroke-width="4" stroke="none"></path><path d="M417.53 275.92H1182.47C1208.31 275.92 1229.25 296.86 1229.25 322.7V360.31H370.75V322.7C370.75 296.86 391.69 275.92 417.53 275.92Z" fill="#d5d5d5" opacity="1" stroke-width="4" stroke="none"></path><path d="M436.7 333.74C444.75 333.74 451.28 327.21 451.28 319.16 451.28 311.1 444.75 304.57 436.7 304.57 428.64 304.57 422.11 311.1 422.11 319.16 422.11 327.21 428.64 333.74 436.7 333.74Z" fill="#ffffff" opacity="1" stroke-width="4" stroke="none"></path><path d="M484.1 333.74C492.16 333.74 498.69 327.21 498.69 319.16 498.69 311.1 492.16 304.57 484.1 304.57 476.05 304.57 469.52 311.1 469.52 319.16 469.52 327.21 476.05 333.74 484.1 333.74Z" fill="#ffffff" opacity="1" stroke-width="4" stroke="none"></path><path d="M531.51 333.74C539.56 333.74 546.1 327.21 546.1 319.16 546.1 311.1 539.56 304.57 531.51 304.57 523.46 304.57 516.92 311.1 516.92 319.16 516.92 327.21 523.46 333.74 531.51 333.74Z" fill="#ffffff" opacity="1" stroke-width="4" stroke="none"></path><path d="M692.27 318.84H907.83" stroke="#ffffff" stroke-width="4" stroke-linecap="round" stroke-linejoin="round" opacity="1" fill="none"></path></g><g><path d="M642.43 493.46H943.61C966.06 493.46 984.23 511.63 984.23 534.08V807.9C984.23 830.35 966.06 848.52 943.61 848.52H642.43C619.98 848.52 601.81 830.35 601.81 807.9V534.08C601.88 511.63 620.05 493.46 642.43 493.46Z" fill="#000000" opacity="0.3" stroke-width="4" stroke="none"></path><path d="M656.46 479.43H957.64C980.09 479.43 998.26 497.6 998.26 520.05V793.87C998.26 816.32 980.09 834.49 957.64 834.49H656.46C634.01 834.49 615.84 816.32 615.84 793.87V520.05C615.91 497.6 634.08 479.43 656.46 479.43Z" fill="#ffc930" opacity="1" stroke-width="4" stroke="none"></path><path d="M746.4 749.53H941.44C955.4 749.53 966.69 760.82 966.69 774.78 966.69 788.74 955.4 800.04 941.44 800.04H721.14V774.78C721.14 760.82 732.44 749.53 746.4 749.53Z" fill="#3c2c5b" opacity="1" stroke-width="4" stroke="none"></path><path d="M672.74 749.53C686.7 749.53 697.99 760.82 697.99 774.78 697.99 788.74 686.7 800.04 672.74 800.04 658.78 800.04 647.48 788.74 647.48 774.78 647.48 760.82 658.78 749.53 672.74 749.53Z" fill="#ffffff" opacity="1" stroke-width="4" stroke="none"></path><path d="M672.74 511H941.44C955.4 511 966.69 522.29 966.69 536.25V697.61C966.69 711.57 955.4 722.87 941.44 722.87H672.74C658.78 722.87 647.48 711.57 647.48 697.61V536.25C647.48 522.29 658.78 511 672.74 511Z" fill="#61ccff" opacity="1" stroke-width="4" stroke="none"></path><path d="M683.26 687.79H927.4" stroke="#0b4f6f" stroke-width="4" stroke-linecap="round" stroke-linejoin="round" opacity="1" fill="none"></path><path d="M734.12 702.52C742.07 702.52 748.51 696.08 748.51 688.14 748.51 680.2 742.07 673.76 734.12 673.76 726.18 673.76 719.74 680.2 719.74 688.14 719.74 696.08 726.18 702.52 734.12 702.52Z" fill="#ffffff" opacity="1" stroke-width="4" stroke="none"></path><path d="M829.96 593.15L792.84 568.59C789.97 566.7 786.11 567.47 784.21 570.35 783.51 571.4 783.16 572.59 783.16 573.79V622.82C783.16 626.26 785.97 629.07 789.41 629.07 790.6 629.07 791.86 628.72 792.84 628.02L829.96 603.46C832.83 601.57 833.53 597.64 831.64 594.83 831.15 594.13 830.59 593.57 829.96 593.15Z" fill="#ffffff" opacity="1" stroke-width="4" stroke="none"></path></g><g><path d="M1122.13 971.66L1093.29 858.41H1256.31L1227.47 971.43 1122.13 971.66Z" fill="#3c2c5b" opacity="1" stroke-width="4" stroke="none"></path><path d="M1097.48 874.92L1093.29 858.41H1256.31L1241.66 916.08 1097.48 874.92Z" fill="#000000" opacity="0.2" stroke-width="4" stroke="none"></path><path d="M1090.27 858.64C1075.85 858.64 1064.23 847.01 1064.23 832.6 1064.23 818.18 1075.85 806.55 1090.27 806.55H1108.64C1113.29 778.18 1135.62 755.86 1163.99 751.21 1167.71 750.51 1171.2 750.28 1174.92 750.28 1207.71 750.28 1235.61 774 1240.96 806.55H1259.1C1273.52 806.55 1284.91 817.95 1285.14 832.6 1285.14 847.01 1273.52 858.64 1259.1 858.64H1090.27Z" fill="#ffc930" opacity="1" stroke-width="4" stroke="none"></path><path d="M1167.71 806.55L1172.36 806.32C1211.66 797.71 1223.29 771.44 1223.52 771.2 1232.82 780.74 1238.87 793.06 1241.19 806.32H1167.71V806.55Z" fill="#d59d00" opacity="0.2" stroke-width="4" stroke="none"></path><path d="M1173.29 768.41C1188.71 768.41 1201.19 755.93 1201.19 740.51 1201.19 725.09 1188.71 712.6 1173.29 712.6 1157.87 712.6 1145.38 725.09 1145.38 740.51 1145.38 755.93 1157.87 768.41 1173.29 768.41Z" fill="#61ccff" opacity="1" stroke-width="4" stroke="none"></path><path d="M1108.64 806.55H1153.99" stroke="#786f54" stroke-width="4" stroke-linecap="round" stroke-linejoin="round" opacity="1" fill="none"></path><path d="M1143.76 859.11L1156.55 967.94" stroke="#000000" stroke-width="4" stroke-linecap="round" stroke-linejoin="round" opacity="1" fill="none"></path><path d="M1202.82 859.11L1190.26 968.17" stroke="#000000" stroke-width="4" stroke-linecap="round" stroke-linejoin="round" opacity="1" fill="none"></path></g><g><path d="M453.67 552.36L481.47 524.56 530.7 573.79C538.39 581.47 538.39 593.9 530.7 601.59 523.01 609.28 510.59 609.28 502.9 601.59L453.67 552.36Z" fill="#ffc930" stroke-linejoin="round" opacity="1" stroke-width="4" stroke="none"></path><path d="M530.7 586.39C523.01 594.08 510.59 594.08 502.9 586.39L461.3 544.8 453.67 552.38 502.9 601.61C510.59 609.3 523.01 609.3 530.7 601.61 536.55 595.76 537.92 587.23 534.91 580.07 533.97 582.39 532.54 584.5 530.7 586.39Z" fill="#000000" opacity="0.2" stroke-width="4" stroke="none"></path><path d="M452.16 510.48L439.54 523.1 461.24 544.81 473.86 532.18 452.16 510.48Z" fill="#ffc930" opacity="1" stroke-width="4" stroke="none"></path><path d="M462.78 540.83C454.67 533.56 451.93 522.61 455.2 513.5L452.14 510.45 439.51 523.09 461.2 544.78 464.04 541.94C463.67 541.57 463.2 541.2 462.78 540.83Z" fill="#000000" opacity="0.2" stroke-width="4" stroke="none"></path><path d="M445.88 398.13C477.15 428.36 480.21 477.43 452.93 511.29 451.41 513.18 449.77 515.02 448.04 516.82 445.67 519.29 443.09 521.66 440.4 523.82 404.39 552.99 351.52 547.35 322.35 511.34 293.18 475.32 298.81 422.46 334.83 393.29 367.79 366.65 415.39 368.75 445.88 398.13Z" fill="#ffc930" opacity="1" stroke-width="4" stroke="none"></path><path d="M387.59 517.5C420.13 517.5 446.51 491.12 446.51 458.58 446.51 426.04 420.13 399.66 387.59 399.66 355.05 399.66 328.67 426.04 328.67 458.58 328.67 491.12 355.05 517.5 387.59 517.5Z" fill="#eeeeee" opacity="1" stroke-width="4" stroke="none"></path><path d="M481.43 524.5C488.91 532.35 488.59 544.77 480.75 552.25 473.17 559.46 461.21 559.52 453.63 552.3L481.43 524.5Z" fill="#61ccff" stroke-linejoin="round" opacity="1" stroke-width="4" stroke="none"></path><path d="M415.86 467.69C420.81 467.69 424.81 463.68 424.81 458.74 424.81 453.79 420.81 449.79 415.86 449.79 410.92 449.79 406.91 453.79 406.91 458.74 406.91 463.68 410.92 467.69 415.86 467.69Z" fill="#ffffff" opacity="1" stroke-width="4" stroke="none"></path><path d="M387.9 467.69C392.85 467.69 396.86 463.68 396.86 458.74 396.86 453.79 392.85 449.79 387.9 449.79 382.96 449.79 378.95 453.79 378.95 458.74 378.95 463.68 382.96 467.69 387.9 467.69Z" fill="#ffffff" opacity="1" stroke-width="4" stroke="none"></path><path d="M367.88 462.89C370.17 458.51 368.48 453.1 364.1 450.81 359.72 448.51 354.31 450.2 352.02 454.58 349.72 458.96 351.41 464.37 355.79 466.66 360.17 468.96 365.58 467.27 367.88 462.89Z" fill="#ffffff" opacity="1" stroke-width="4" stroke="none"></path><path d="M482.15 580L509.38 552.72" stroke="#000000" stroke-width="4" stroke-linecap="round" stroke-linejoin="round" opacity="1" fill="none"></path><path d="M490.74 588.58L518.01 561.31" stroke="#000000" stroke-width="4" stroke-linecap="round" stroke-linejoin="round" opacity="1" fill="none"></path><path d="M499.32 597.16L526.59 569.89" stroke="#000000" stroke-width="4" stroke-linecap="round" stroke-linejoin="round" opacity="1" fill="none"></path><path d="M453.04 511.34C451.51 513.23 449.88 515.08 448.14 516.87 445.72 519.34 443.19 521.71 440.51 523.87" stroke="#000000" stroke-width="4" stroke-linecap="round" stroke-linejoin="round" opacity="1" fill="none"></path></g><g><path d="M409.88 859.01L230.63 939.22" stroke="#231f20" stroke-width="4" stroke-linecap="round" stroke-linejoin="round" opacity="1" fill="none"></path><path d="M498.04 893.43L458.33 1021.42" stroke="#231f20" stroke-width="4" stroke-linecap="round" stroke-linejoin="round" opacity="1" fill="none"></path></g><g><path d="M1085.6 364.64L1146.07 429.68 1180.55 248.31 1324.33 388.74 1287.41 229.38 1448.34 232.23" stroke="#231f20" stroke-width="4" stroke-linecap="round" stroke-linejoin="round" opacity="1" fill="none"></path></g><g><path d="M279.85 737.47L251.63 711.58 266.32 750.28 228.75 752.02 262.02 769.4 236.77 798.42 273.76 782.66 282 821.26 293.96 782.75 325.89 798.56 308.07 765.95 338.97 758.38 308.83 751.04 331.49 723.54 299.29 738.05 290.69 693.89 279.85 737.47Z" fill="#3c2c5b" opacity="1" stroke-width="4" stroke="none"></path></g><g><path d="M1289.99 492.29L1245.55 518.79 1300.24 512.52 1293.44 557.71 1321.21 519.42 1356.78 554.25 1341.07 507.74 1390.92 493.94 1340.38 483.06 1366.5 435.22 1322.8 471.48 1297.95 419.87 1300.08 475.3 1252.29 459.91 1289.99 492.29Z" fill="#61ccff" opacity="1" stroke-width="4" stroke="none"></path></g><g><path d="M604.23 201.95L624.56 189.83 599.54 192.7 602.65 172.02 589.94 189.54 573.67 173.6 580.86 194.88 558.05 201.2 581.17 206.18 569.22 228.07 589.22 211.48 600.58 235.09 599.61 209.73 621.48 216.77 604.23 201.95Z" fill="#ffffff" opacity="1" stroke-width="4" stroke="none"></path></g></svg>